<mxfile host="65bd71144e">
    <diagram id="O9uaQpZIOzdSGRzgpkhy" name="Page-1">
        <mxGraphModel dx="1890" dy="622" grid="1" gridSize="10" guides="1" tooltips="1" connect="1" arrows="1" fold="1" page="1" pageScale="1" pageWidth="827" pageHeight="1169" math="0" shadow="0">
            <root>
                <mxCell id="0"/>
                <mxCell id="1" parent="0"/>
                <mxCell id="3" style="edgeStyle=none;html=1;" edge="1" parent="1" source="2">
                    <mxGeometry relative="1" as="geometry">
                        <mxPoint x="160" y="190" as="targetPoint"/>
                    </mxGeometry>
                </mxCell>
                <mxCell id="14" style="edgeStyle=none;html=1;" edge="1" parent="1" source="2">
                    <mxGeometry relative="1" as="geometry">
                        <mxPoint x="100" y="85" as="targetPoint"/>
                    </mxGeometry>
                </mxCell>
                <mxCell id="2" value="Master / Main" style="text;html=1;align=center;verticalAlign=middle;whiteSpace=wrap;rounded=0;strokeWidth=4;fontSize=18;" vertex="1" parent="1">
                    <mxGeometry x="220" y="40" width="190" height="90" as="geometry"/>
                </mxCell>
                <mxCell id="4" value="feature/NOME_DO_CARD_230" style="text;html=1;align=center;verticalAlign=middle;whiteSpace=wrap;rounded=0;strokeWidth=4;fontSize=18;" vertex="1" parent="1">
                    <mxGeometry x="170" y="310" width="306" height="90" as="geometry"/>
                </mxCell>
                <mxCell id="6" value="Develop" style="text;html=1;align=center;verticalAlign=middle;whiteSpace=wrap;rounded=0;strokeWidth=4;fontSize=18;" vertex="1" parent="1">
                    <mxGeometry x="70" y="160" width="190" height="90" as="geometry"/>
                </mxCell>
                <mxCell id="8" value="Release" style="text;html=1;align=center;verticalAlign=middle;whiteSpace=wrap;rounded=0;strokeWidth=4;fontSize=18;" vertex="1" parent="1">
                    <mxGeometry x="470" y="166" width="190" height="90" as="geometry"/>
                </mxCell>
                <mxCell id="9" style="edgeStyle=none;html=1;entryX=0.842;entryY=0.556;entryDx=0;entryDy=0;entryPerimeter=0;" edge="1" parent="1" source="8" target="2">
                    <mxGeometry relative="1" as="geometry"/>
                </mxCell>
                <mxCell id="10" value="feature/NOME_DO_CARD_230" style="text;html=1;align=center;verticalAlign=middle;whiteSpace=wrap;rounded=0;strokeWidth=4;fontSize=18;" vertex="1" parent="1">
                    <mxGeometry x="170" y="360" width="306" height="90" as="geometry"/>
                </mxCell>
                <mxCell id="11" value="bugfix/NOME_DO_CARD_230" style="text;html=1;align=center;verticalAlign=middle;whiteSpace=wrap;rounded=0;strokeWidth=4;fontSize=18;" vertex="1" parent="1">
                    <mxGeometry x="164" y="410" width="306" height="90" as="geometry"/>
                </mxCell>
                <mxCell id="12" style="edgeStyle=none;html=1;entryX=0.526;entryY=0.711;entryDx=0;entryDy=0;entryPerimeter=0;" edge="1" parent="1" source="4" target="8">
                    <mxGeometry relative="1" as="geometry"/>
                </mxCell>
                <mxCell id="13" style="edgeStyle=none;html=1;entryX=0.359;entryY=0.222;entryDx=0;entryDy=0;entryPerimeter=0;" edge="1" parent="1" source="6" target="4">
                    <mxGeometry relative="1" as="geometry"/>
                </mxCell>
                <mxCell id="15" value="Hotfix" style="text;html=1;align=center;verticalAlign=middle;whiteSpace=wrap;rounded=0;strokeWidth=4;fontSize=18;" vertex="1" parent="1">
                    <mxGeometry x="-70" y="40" width="190" height="90" as="geometry"/>
                </mxCell>
            </root>
        </mxGraphModel>
    </diagram>
</mxfile>
